<?xml version="1.0" encoding="UTF-8" standalone="no"?>
<!DOCTYPE svg PUBLIC "-//W3C//DTD SVG 1.1//EN" "http://www.w3.org/Graphics/SVG/1.1/DTD/svg11.dtd">
<svg width="100%" height="100%" viewBox="0 0 200 200" version="1.1" xmlns="http://www.w3.org/2000/svg" xmlns:xlink="http://www.w3.org/1999/xlink" xml:space="preserve" xmlns:serif="http://www.serif.com/" style="fill-rule:evenodd;clip-rule:evenodd;stroke-linejoin:round;stroke-miterlimit:2;">
    <g transform="matrix(0.477168,0,0,0.49554,100,100)">
        <g transform="matrix(1,0,0,1,-209.57,-201.8)">
            <clipPath id="_clip1">
                <rect x="0" y="0" width="419.14" height="403.6"/>
            </clipPath>
            <g clip-path="url(#_clip1)">
                <g>
                    <path d="M281.78,0C280.897,0.011 279.992,0.055 279.092,0.125C243.268,6.309 223.571,44.189 220.717,77.594C216.547,107.905 229.904,146.864 263.186,153.656C268.014,154.575 273.03,154.155 277.749,152.875C317.825,139.437 335.761,91.972 329.967,52.655C328.283,27.263 309.141,-0.35 281.78,-0.001L281.78,0ZM129.9,1.625C107.625,2.172 90.273,24.763 86.744,46C79.303,88.074 98.442,140.352 142.275,153.66C146.381,154.553 150.627,154.645 154.775,154.004C184.401,149.066 196.952,115.85 195.713,89.035C194.821,53.663 176.447,12.762 139.713,2.816C136.355,1.925 133.083,1.55 129.9,1.628L129.9,1.625ZM378.84,121.125C340.306,123.43 313.887,161.879 310.121,197.781C305.021,223.675 318.826,258.308 348.371,260.375C389.568,259.867 417.672,215.846 418.84,177.969C421.446,152.918 406.689,122.508 378.84,121.125ZM41.56,129.656C25.166,129.515 9.042,139.335 3.685,156C-10.608,200.579 18.094,257.04 65.31,266.41C85.016,269.782 102.33,254.649 107.216,236.441C117.571,197.496 96.303,152.276 60.31,134.601C54.446,131.31 47.975,129.719 41.56,129.664L41.56,129.656ZM214.31,209.594C182.171,209.663 149.527,225.972 128.716,250.25C106.239,278.547 87.826,311.476 80.622,347.188C71.871,372.894 91.705,402.478 119.184,402.657C152.243,403.575 180.655,380.874 213.528,379.188C241.418,374.937 266.391,389.443 291.466,398.938C312.815,408.07 342.316,404.57 353.216,381.594C361.79,358.175 349.17,333.204 338.716,312.406C317.394,278.649 294.551,243.17 259.591,222.094C245.578,213.409 230.006,209.561 214.31,209.594Z" style="fill:rgb(153,122,219);fill-rule:nonzero;"/>
                </g>
            </g>
        </g>
    </g>
</svg>
